<?xml version="1.0" encoding="UTF-8" standalone="no"?>
<!DOCTYPE svg PUBLIC "-//W3C//DTD SVG 20010904//EN" "http://www.w3.org/TR/2001/REC-SVG-20010904/DTD/svg10.dtd">
<svg version="1.0" xmlns="http://www.w3.org/2000/svg" width="2000.000000pt" height="2000.000000pt" viewBox="0 0 2000.000000 2000.000000" preserveAspectRatio="xMidYMid meet">
<metadata>
Created by potrace 1.15, written by Peter Selinger 2001-2017
</metadata>
<g transform="translate(0.000000,2000.000000) scale(0.100000,-0.100000)" fill="#000000" stroke="none">
<path d="M0 10000 l0 -10000 10000 0 10000 0 0 10000 0 10000 -10000 0 -10000 0 0 -10000z m10098 4484 c43 -20 138 -66 212 -101 74 -36 171 -82 215 -103 70 -34 179 -86 500 -240 210 -101 340 -163 450 -215 66 -32 174 -83 240 -115 66 -32 183 -88 260 -125 77 -37 178 -85 225 -107 47 -23 139 -67 205 -99 145 -69 324 -155 500 -240 72 -34 150 -72 175 -83 25 -12 57 -32 73 -45 l27 -25 0 -607 c0 -557 -1 -607 -17 -613 -10 -4 -161 65 -422 195 -525 261 -1093 542 -1656 820 -247 122 -589 291 -759 376 -169 84 -316 153 -326 153 -10 0 -103 -42 -207 -93 -103 -52 -316 -157 -473 -234 -1296 -637 -1448 -713 -1454 -729 -3 -9 -6 -308 -6 -664 0 -605 1 -650 17 -659 14 -7 40 3 113 41 52 28 147 78 210 110 125 64 323 167 575 298 88 45 212 109 275 142 63 32 169 87 235 122 138 72 456 236 595 307 52 27 108 49 124 49 28 0 170 -70 1616 -798 327 -165 807 -406 1065 -536 328 -164 474 -242 482 -258 10 -18 13 -154 13 -566 0 -461 -2 -543 -14 -548 -16 -6 -172 71 -1940 953 -968 483 -1213 602 -1234 596 -24 -6 -165 -76 -687 -343 -132 -67 -328 -167 -435 -222 -107 -54 -298 -152 -425 -217 -126 -65 -302 -155 -391 -200 -88 -44 -168 -89 -177 -99 -16 -17 -17 -70 -15 -618 3 -686 -8 -626 105 -574 38 17 86 40 108 50 87 40 223 102 270 125 28 12 86 40 130 60 44 20 118 55 165 77 47 22 103 48 125 58 22 9 78 35 125 57 120 57 204 96 285 133 39 17 108 49 155 71 47 22 103 48 125 58 22 10 81 37 130 60 50 24 108 51 130 61 22 10 78 36 125 58 135 63 154 68 198 53 20 -8 127 -58 237 -111 110 -54 272 -133 360 -175 88 -43 237 -115 330 -160 94 -46 247 -120 340 -165 94 -45 242 -118 330 -160 88 -43 232 -113 320 -155 88 -43 237 -115 330 -160 94 -46 247 -120 340 -165 94 -45 242 -118 330 -161 89 -44 166 -79 172 -79 6 0 21 -12 32 -26 21 -27 21 -33 19 -597 -3 -508 -5 -571 -19 -580 -12 -8 -114 39 -445 206 -593 298 -1774 893 -2277 1146 -230 116 -426 211 -437 211 -15 0 -1192 -587 -2813 -1402 -197 -99 -365 -177 -373 -174 -12 5 -14 404 -14 3041 0 1988 3 3043 10 3055 5 10 45 36 87 58 110 55 360 184 548 281 362 188 457 238 610 316 234 120 710 366 935 483 80 41 217 112 305 157 222 114 463 239 570 295 50 26 105 48 123 49 20 0 65 -14 110 -35z m3367 -1623 c22 -11 99 -48 170 -82 72 -34 184 -88 250 -120 112 -54 353 -170 540 -259 44 -21 139 -67 210 -101 297 -142 551 -264 745 -357 128 -62 282 -136 507 -244 120 -57 173 -82 493 -236 303 -147 376 -181 395 -186 11 -3 32 -17 48 -31 l27 -26 0 -638 c0 -548 -2 -640 -15 -651 -12 -10 -146 54 -736 349 -397 199 -732 361 -745 361 l-24 0 0 -2379 c0 -1309 -3 -2386 -6 -2395 -8 -22 -23 -20 -75 9 -24 13 -78 42 -119 63 -41 21 -129 67 -195 102 -66 34 -185 96 -265 137 -80 41 -153 82 -162 90 -17 15 -18 142 -18 2402 0 2122 -2 2389 -15 2408 -9 13 -228 128 -537 283 -286 143 -527 268 -534 278 -19 24 -20 1212 -2 1230 16 16 16 15 63 -7z m-7186 -185 c13 -15 0 -160 -19 -221 -5 -16 -14 -70 -20 -120 -6 -49 -15 -103 -20 -120 -5 -16 -14 -70 -20 -120 -6 -49 -15 -103 -20 -120 -5 -16 -14 -68 -20 -115 -5 -47 -17 -116 -25 -155 -8 -38 -15 -85 -15 -104 0 -18 -7 -59 -15 -90 -8 -31 -19 -92 -24 -136 -5 -44 -17 -111 -25 -150 -9 -38 -16 -85 -16 -104 0 -18 -7 -59 -15 -90 -8 -31 -19 -92 -24 -136 -5 -44 -17 -111 -25 -150 -9 -38 -16 -85 -16 -104 0 -18 -7 -59 -15 -90 -8 -31 -19 -92 -24 -136 -5 -44 -17 -111 -25 -150 -9 -38 -16 -85 -16 -104 0 -18 -7 -59 -15 -90 -8 -31 -19 -92 -24 -136 -5 -44 -17 -111 -25 -150 -9 -38 -16 -83 -16 -100 0 -16 -9 -77 -20 -135 -10 -58 -28 -159 -39 -225 -11 -66 -29 -176 -41 -245 -12 -69 -30 -179 -41 -245 -11 -66 -30 -172 -42 -235 -30 -155 -28 -250 33 -1917 14 -385 15 -370 -16 -398 -14 -13 -44 -33 -67 -45 -23 -11 -73 -38 -112 -59 -38 -21 -106 -57 -150 -81 -44 -23 -84 -46 -90 -50 -5 -5 -37 -22 -70 -40 -33 -17 -80 -42 -105 -56 -25 -14 -74 -41 -110 -60 -36 -19 -85 -46 -110 -60 -106 -60 -141 -76 -155 -70 -13 4 -15 163 -17 1238 l-3 1233 -22 45 c-42 89 -103 235 -103 248 0 7 -9 30 -19 50 -11 20 -29 62 -41 92 -12 30 -31 73 -41 96 -11 23 -19 46 -19 52 0 11 -11 38 -61 148 -11 23 -19 47 -19 55 0 8 -9 28 -20 44 -11 17 -20 37 -20 45 0 8 -6 27 -14 42 -8 14 -19 43 -26 65 -7 21 -19 47 -26 58 -8 11 -14 26 -14 34 0 7 -8 32 -19 55 -17 39 -35 80 -80 194 -10 26 -37 90 -60 142 -23 52 -41 101 -41 108 0 7 -9 30 -19 50 -11 20 -29 62 -41 92 -12 30 -31 73 -41 96 -11 23 -19 46 -19 52 0 11 -11 38 -61 148 -11 23 -19 47 -19 55 0 8 -9 28 -20 44 -11 17 -20 37 -20 45 0 8 -6 27 -14 42 -8 14 -19 43 -26 65 -7 21 -19 47 -26 58 -8 11 -14 26 -14 34 0 7 -8 32 -19 55 -10 23 -28 64 -39 91 -50 126 -62 156 -101 245 -23 52 -41 101 -41 108 0 7 -9 30 -19 50 -11 20 -29 62 -41 92 -12 30 -28 69 -36 85 -7 17 -20 49 -29 73 -36 101 -47 126 -60 146 -8 11 -15 27 -15 36 0 8 -9 33 -21 54 -32 59 -23 85 36 107 28 11 68 24 90 29 22 5 63 16 90 25 81 25 178 55 388 116 39 12 97 30 128 41 83 29 111 22 127 -27 7 -22 19 -54 27 -72 8 -17 15 -38 15 -47 0 -9 9 -33 20 -53 11 -21 20 -47 20 -58 0 -11 7 -30 15 -41 8 -12 19 -39 24 -60 5 -22 22 -70 36 -109 15 -38 33 -90 41 -115 8 -25 21 -59 29 -77 8 -17 15 -38 15 -47 0 -9 9 -33 20 -53 11 -21 20 -46 20 -55 0 -10 9 -35 20 -55 11 -21 20 -44 20 -53 0 -15 29 -95 61 -168 10 -23 19 -50 19 -58 0 -9 7 -30 15 -47 16 -35 39 -98 61 -167 8 -25 21 -59 29 -77 8 -17 15 -38 15 -47 0 -9 9 -34 20 -56 11 -22 20 -46 20 -55 0 -9 9 -33 20 -55 11 -22 20 -47 20 -56 0 -9 7 -30 15 -47 16 -36 40 -100 61 -167 8 -25 18 -54 24 -65 14 -29 40 -102 56 -159 7 -27 16 -51 19 -54 18 -19 44 72 84 293 24 135 36 196 51 273 13 68 27 143 41 217 6 33 19 101 29 150 22 106 47 240 66 345 7 41 18 99 23 128 13 60 26 131 42 217 6 33 19 101 29 150 22 106 47 240 66 345 7 41 18 100 24 130 6 30 16 80 21 110 6 30 16 80 23 110 l12 54 424 213 c234 117 428 213 431 213 4 0 12 -6 18 -14z"/>
</g>
</svg>